<?xml version="1.0" encoding="utf-8"?>
<!-- Generator: Adobe Illustrator 25.0.0, SVG Export Plug-In . SVG Version: 6.00 Build 0)  -->
<svg version="1.1" id="레이어_1" xmlns="http://www.w3.org/2000/svg" xmlns:xlink="http://www.w3.org/1999/xlink" x="0px"
	 y="0px" viewBox="0 0 897 122" style="enable-background:new 0 0 897 122;" xml:space="preserve">
<style type="text/css">
	.st0{fill:none;stroke:#1853FE;stroke-width:5;stroke-miterlimit:10;}
</style>
<g>
	<path class="st0" d="M2.98,4.12h48.12c25.31,0,41.87,15.86,41.87,39.69c0,24.22-17.03,39.45-42.81,39.38h-17.5v34.06H2.98V4.12z
		 M44.23,60.06c11.17-0.08,17.73-6.33,17.66-16.25c0.08-9.84-6.48-15.86-17.66-15.94H32.67v32.19H44.23z"/>
	<path class="st0" d="M158.77,118.81c-30.86,0-54.77-20.7-54.84-58.13C104,23.03,127.91,2.56,158.77,2.56
		c30.55,0,54.69,20.47,54.69,58.12S189.31,118.81,158.77,118.81z M158.77,92.87c15.47-0.08,24.14-11.41,24.06-32.19
		c0.08-20.86-8.59-32.19-24.06-32.19c-15.62,0-24.22,11.33-24.22,32.19C134.55,81.47,143.14,92.79,158.77,92.87z"/>
	<path class="st0" d="M227.98,4.12h48.12c25.31,0,41.88,14.38,41.88,38.28c0,15.62-7.19,26.64-19.38,32.42l23.12,42.42h-32.34
		l-20.08-37.66h-11.64v37.66h-29.69V4.12z M269.23,56.31c11.17,0,17.73-4.06,17.66-13.91c0.08-10-6.48-14.45-17.66-14.53h-11.56
		v28.44H269.23z"/>
	<path class="st0" d="M328.14,4.12h97.5v24.06h-34.06v89.06H362.2V28.19h-34.06V4.12z"/>
	<path class="st0" d="M437.67,4.12h78.91v24.06h-49.22v20.47h44.22v24.06h-44.22v44.53h-29.69V4.12z"/>
	<path class="st0" d="M582.52,118.81c-30.86,0-54.77-20.7-54.84-58.13c0.08-37.66,23.98-58.12,54.84-58.12
		c30.55,0,54.69,20.47,54.69,58.12S613.06,118.81,582.52,118.81z M582.52,92.87c15.47-0.08,24.14-11.41,24.06-32.19
		c0.08-20.86-8.59-32.19-24.06-32.19c-15.62,0-24.22,11.33-24.22,32.19C558.3,81.47,566.89,92.79,582.52,92.87z"/>
	<path class="st0" d="M651.73,4.12h29.69v89.06h46.09v24.06h-75.78V4.12z"/>
	<path class="st0" d="M770.02,117.25h-29.69V4.12h29.69V117.25z"/>
	<path class="st0" d="M839.39,118.81c-30.86,0-54.77-20.7-54.84-58.13c0.08-37.66,23.98-58.12,54.84-58.12
		c30.55,0,54.69,20.47,54.69,58.12S869.94,118.81,839.39,118.81z M839.39,92.87c15.47-0.08,24.14-11.41,24.06-32.19
		c0.08-20.86-8.59-32.19-24.06-32.19c-15.62,0-24.22,11.33-24.22,32.19C815.17,81.47,823.77,92.79,839.39,92.87z"/>
</g>
</svg>
